<svg xmlns="http://www.w3.org/2000/svg" viewBox="0 0 409 424">
  <g transform="translate(-2.06, 740) scale(0.1, -0.1)" fill="#F59E0B" stroke="none">
    <path d="M1995 7381 c-219 -64 -400 -250 -450 -465 -21 -89 -19 -211 5 -290 42 -134 167 -253 312 -297 189 -58 441 19 591 180 292 312 220 760 -140 871 -84 26 -232 26 -318 1z"/>
    <path d="M3091 6259 c-164 -10 -399 -38 -611 -74 -886 -152 -1647 -497 -1960 -890 -151 -189 -207 -388 -166 -585 69 -330 433 -639 756 -644 76 -1 92 2 145 29 47 23 66 41 90 79 28 47 30 55 37 210 10 240 59 393 171 542 248 328 654 485 1483 574 441 48 659 97 843 190 154 77 231 166 231 267 0 233 -361 339 -1019 302z"/>
    <path d="M2292 5175 c-114 -25 -182 -83 -197 -165 -8 -44 3 -73 70 -185 111 -184 112 -351 5 -529 -204 -339 -830 -648 -1739 -857 -257 -59 -304 -73 -355 -102 -49 -28 -65 -51 -50 -74 22 -35 63 -54 159 -76 93 -20 126 -22 460 -21 382 0 476 7 815 60 591 93 1151 274 1515 489 318 189 503 401 537 617 52 341 -297 682 -839 819 -140 35 -291 45 -381 24z"/>
  </g>
</svg>