<svg version="1.1" id="Layer_1" xmlns="http://www.w3.org/2000/svg" xmlns:xlink="http://www.w3.org/1999/xlink" x="0px" y="0px"
	 width="100%" viewBox="0 0 270 270" enable-background="new 0 0 270 270" xml:space="preserve">
<path fill="#E8EAE7" opacity="1.000000" stroke="none" 
	d="
M179.000000,271.000000 
	C119.333336,271.000000 60.166668,271.000000 1.000000,271.000000 
	C1.000000,181.000000 1.000000,91.000000 1.000000,1.000000 
	C91.000000,1.000000 181.000000,1.000000 271.000000,1.000000 
	C271.000000,91.000000 271.000000,181.000000 271.000000,271.000000 
	C240.500000,271.000000 210.000000,271.000000 179.000000,271.000000 
M211.945770,136.221619 
	C211.890152,135.157669 211.834534,134.093719 211.865265,132.197266 
	C208.945496,120.461067 206.025711,108.724876 203.070114,96.171898 
	C201.374634,90.447144 199.679153,84.722389 197.889435,78.282166 
	C195.022125,69.984467 190.118408,63.182919 182.619904,57.493755 
	C181.248718,56.964939 179.877548,56.436123 177.909149,55.312275 
	C170.478348,52.240570 163.124741,53.583870 158.501724,59.366962 
	C158.578522,59.532963 158.655304,59.698967 158.826187,59.792042 
	C158.826187,59.792042 158.729172,59.723049 158.036484,59.499477 
	C155.630966,61.963604 153.225449,64.427727 150.309341,67.320595 
	C147.089233,72.834358 143.869141,78.348129 140.177826,84.316536 
	C138.454651,87.548759 136.731476,90.780983 134.476791,94.481255 
	C133.366058,97.570335 131.121292,98.663986 127.681587,97.655884 
	C127.119354,97.107552 126.557121,96.559219 125.902428,95.293861 
	C122.665260,89.508698 119.428093,83.723541 115.853767,77.354195 
	C114.717537,75.545547 113.581306,73.736900 112.063423,71.456429 
	C111.717384,71.254250 111.371338,71.052063 110.850891,70.455841 
	C110.683151,70.204124 110.452446,70.042000 109.892326,69.490067 
	C109.606148,69.266830 109.319977,69.043602 108.854424,68.418892 
	C108.666641,68.175873 108.422546,68.022408 107.754250,67.371887 
	C103.184921,63.562737 98.569984,59.868725 91.250877,61.116093 
	C78.304306,65.439041 71.840897,74.880661 69.689804,88.606834 
	C69.512512,89.733047 69.335213,90.859268 68.959251,92.694641 
	C68.703514,94.118210 68.447777,95.541779 68.078209,97.820908 
	C68.079552,99.540077 68.080902,101.259239 68.003288,103.865921 
	C68.056702,112.234360 68.110123,120.602798 68.086800,129.821182 
	C68.422943,133.210678 68.759087,136.600189 69.056351,140.839203 
	C69.706902,144.918686 70.218796,149.026062 71.033104,153.072586 
	C73.853310,167.087097 77.296341,180.881531 85.355019,193.042145 
	C87.678268,196.547943 90.650826,200.401947 94.769257,198.654907 
	C98.062729,197.257828 100.293800,193.138611 102.696327,189.998016 
	C103.374306,189.111771 102.996124,187.417572 103.545204,185.660858 
	C103.438057,184.732147 103.330910,183.803452 103.216682,182.224304 
	C103.223877,181.574402 103.231064,180.924484 103.904503,180.187088 
	C104.587532,179.449387 105.270561,178.711670 106.232536,177.333420 
	C106.470459,176.210800 106.708389,175.088181 107.044121,173.281006 
	C107.339256,172.172150 107.634392,171.063309 108.224709,169.316910 
	C108.480362,168.719482 108.605186,168.006195 109.014107,167.544495 
	C110.876762,165.441467 112.554779,162.268463 114.823723,161.742340 
	C116.402870,161.376175 118.889397,164.615540 120.855682,166.372757 
	C121.680756,167.110123 122.209023,168.179611 123.030060,169.797501 
	C127.016220,176.171677 131.002380,182.545868 135.566483,189.269073 
	C137.017517,190.532150 138.468567,191.795212 140.256378,193.640198 
	C151.081711,204.757996 165.891449,208.827240 178.673798,203.901138 
	C180.799118,202.297577 182.924423,200.694031 185.551559,198.831772 
	C186.052094,198.287628 186.552612,197.743484 187.726654,197.025787 
	C189.179581,195.106781 190.632523,193.187775 192.664719,191.098068 
	C193.113388,190.733749 193.562073,190.369446 194.549042,189.633682 
	C195.734344,187.572052 196.919647,185.510437 198.651154,182.971771 
	C200.128052,180.037399 201.604950,177.103012 203.653244,173.771423 
	C204.487274,171.669632 205.321320,169.567841 206.658783,166.909805 
	C209.589691,159.914215 211.869690,152.794189 210.938843,144.239914 
	C210.997772,143.165161 211.056702,142.090408 211.653625,140.552795 
	C211.720795,139.374466 211.787964,138.196136 211.945770,136.221619 
z"/>
<path fill="#ADA2AD" opacity="1.000000" stroke="none" 
	d="
M116.190926,77.938377 
	C119.428093,83.723541 122.665260,89.508698 125.794182,95.991119 
	C124.816391,99.684845 123.134239,102.712654 123.248360,105.671165 
	C123.478004,111.624161 120.491295,114.741104 116.232307,118.306747 
	C113.667526,120.454002 113.437027,125.389450 111.967575,129.353348 
	C109.185135,131.515045 108.876381,133.595016 110.717957,136.334412 
	C112.675430,139.246201 114.249420,142.415771 116.144691,145.742828 
	C117.256035,139.973068 118.282227,134.645355 119.308418,129.317642 
	C120.025894,129.019928 120.743362,128.722214 121.460831,128.424500 
	C123.772598,131.202438 125.852814,134.227280 128.468811,136.680862 
	C130.593689,138.673828 134.164749,141.888077 135.696426,141.242706 
	C140.696747,139.135834 143.209671,143.112549 146.806183,144.628143 
	C146.727859,145.995911 146.642685,146.991196 146.200821,147.986893 
	C144.763077,147.663132 143.468613,147.614975 142.635223,146.970566 
	C136.686462,142.370743 133.362320,142.597458 128.423096,148.042038 
	C126.974396,149.638962 125.475136,151.217636 123.827904,152.600861 
	C120.777405,155.162430 115.306717,155.035110 113.461945,152.610046 
	C111.417717,149.922806 109.181885,147.380905 107.150902,144.684280 
	C106.468132,143.777725 105.704544,142.568024 105.756645,141.536194 
	C105.962189,137.465149 103.084137,136.430298 100.202927,134.976303 
	C97.258614,133.490463 94.493980,131.587784 91.834969,129.618713 
	C90.058289,128.303040 88.603729,126.552376 87.003296,124.663925 
	C87.000252,123.888115 86.998917,123.444756 86.958275,122.657738 
	C85.948189,121.207970 84.977425,120.101868 84.004990,118.663643 
	C84.000900,117.888702 83.998482,117.445877 83.955154,116.665955 
	C82.944160,115.551651 81.974060,114.774437 81.002029,113.609268 
	C79.867477,110.565308 78.550865,107.970451 77.643257,105.239662 
	C76.088470,100.561676 72.727394,98.139999 68.192047,96.965347 
	C68.447777,95.541779 68.703514,94.118210 69.411530,92.352806 
	C71.242981,92.339905 72.622154,92.668846 74.129333,93.259094 
	C74.839005,94.013092 75.420670,94.505791 76.044411,95.352440 
	C78.142334,99.081314 80.130600,102.499847 82.272545,105.819206 
	C84.532135,109.320862 92.845345,110.433701 95.926537,107.626633 
	C96.549400,107.059189 97.027344,105.868401 96.925087,105.045380 
	C96.306511,100.066849 98.530220,96.535774 102.029999,93.294289 
	C103.181595,92.227684 103.698952,90.180008 103.958237,88.496529 
	C105.215820,80.331192 108.826530,77.130959 116.190926,77.938377 
z"/>
<path fill="#928394" opacity="1.000000" stroke="none" 
	d="
M140.649048,83.861900 
	C143.869141,78.348129 147.089233,72.834358 150.879166,67.273758 
	C152.872192,69.219910 154.136368,71.353134 155.747559,73.180351 
	C161.233643,79.402000 166.771881,85.582039 172.464386,91.613564 
	C173.573730,92.788956 175.464279,93.227028 176.996094,94.253860 
	C176.997681,94.502533 177.000000,95.000000 177.041229,95.351669 
	C181.286621,102.492752 185.431702,109.320282 189.761536,116.028564 
	C190.378250,116.984062 191.890991,117.361229 193.000290,118.377716 
	C196.411392,125.624557 199.542053,132.654312 203.353821,139.292969 
	C204.729553,141.688995 207.739746,143.146545 210.002869,145.417542 
	C209.820511,147.103394 209.639374,148.404053 209.458252,149.704727 
	C209.007843,149.849670 208.557434,149.994614 208.107025,150.139557 
	C206.552017,148.389557 205.003540,146.633713 203.440125,144.891251 
	C201.970108,143.252884 200.484329,141.628632 198.854980,139.674988 
	C198.066101,137.851166 197.589935,136.252701 196.756073,134.869934 
	C194.936111,131.851990 192.934250,128.943741 191.005249,125.743347 
	C191.003784,125.496025 190.998169,125.001411 190.971161,124.707214 
	C190.628235,123.942024 190.312302,123.471046 189.968811,122.706627 
	C189.628174,121.941719 189.315109,121.470245 188.950897,120.684814 
	C188.269989,119.909325 187.640259,119.447800 187.009201,118.739555 
	C187.007874,118.492828 187.001907,117.999405 186.951126,117.685196 
	C186.269913,116.910011 185.639481,116.449028 185.000107,115.613640 
	C182.193375,108.393021 179.186600,101.711449 172.562897,97.879265 
	C172.005798,98.103554 171.448700,98.327850 170.891617,98.552139 
	C171.262268,102.035568 171.632935,105.518997 171.795380,109.134567 
	C171.408966,109.711502 171.230743,110.156288 170.722107,110.713593 
	C169.930801,110.890839 169.469894,110.955566 169.005936,110.765984 
	C169.001938,110.342140 169.000961,110.172600 168.954529,109.722015 
	C168.005783,108.900932 166.603851,108.570610 166.275131,107.788948 
	C162.278183,98.285126 151.013367,98.026115 145.091034,91.020447 
	C144.821014,90.701019 144.204468,90.674522 143.749313,90.511589 
	C144.139511,90.197021 144.529724,89.882446 144.919922,89.567871 
	C143.496292,87.665878 142.072678,85.763885 140.649048,83.861900 
z"/>
<path fill="#CAC2C6" opacity="1.000000" stroke="none" 
	d="
M103.102356,186.093933 
	C102.996124,187.417572 103.374306,189.111771 102.696327,189.998016 
	C100.293800,193.138611 98.062729,197.257828 94.769257,198.654907 
	C90.650826,200.401947 87.678268,196.547943 85.355019,193.042145 
	C77.296341,180.881531 73.853310,167.087097 71.033104,153.072586 
	C70.218796,149.026062 69.706902,144.918686 69.495827,140.417786 
	C74.951385,139.215332 77.533272,141.160538 78.445435,146.366211 
	C78.905525,148.991882 81.105049,151.312759 82.941940,154.509064 
	C83.724174,156.437363 84.094406,160.569748 86.037178,161.534103 
	C91.811646,164.400452 92.468529,170.558426 96.054321,174.711060 
	C98.268280,177.274994 100.035957,180.224319 102.008133,183.346924 
	C102.375633,184.493454 102.738991,185.293701 103.102356,186.093933 
z"/>
<path fill="#B8AFB7" opacity="1.000000" stroke="none" 
	d="
M192.085464,191.268784 
	C190.632523,193.187775 189.179581,195.106781 187.348145,196.768509 
	C186.533646,193.841644 186.591766,191.349854 183.443970,189.593506 
	C171.087006,182.698883 158.968552,175.376892 146.759445,168.217117 
	C140.927399,164.797058 135.934631,167.115906 134.950226,173.626389 
	C134.757111,174.903610 134.432541,176.293976 133.729996,177.336624 
	C131.467743,180.694046 132.326462,183.443283 134.997696,186.366455 
	C134.995117,187.461365 134.991821,188.190704 134.988525,188.920044 
	C131.002380,182.545868 127.016220,176.171677 123.225067,169.205658 
	C124.918358,166.120010 126.376068,163.600754 127.922089,161.136887 
	C133.950928,151.528931 134.727112,151.170883 145.004242,153.338028 
	C145.614960,154.433014 146.218384,155.190216 146.876038,156.326141 
	C147.520844,158.107040 148.111420,159.509216 149.101562,160.943359 
	C153.570190,163.607559 157.655350,166.215317 161.704132,168.878342 
	C166.534256,172.055283 171.393112,175.193878 176.129822,178.505997 
	C181.481155,182.247940 186.710556,186.164246 191.996490,190.002350 
	C192.000000,190.000000 191.995010,190.006714 192.010742,190.322723 
	C192.046112,190.848755 192.065781,191.058777 192.085464,191.268784 
z"/>
<path fill="#B1A8B0" opacity="1.000000" stroke="none" 
	d="
M144.996948,153.000244 
	C134.727112,151.170883 133.950928,151.528931 127.922089,161.136887 
	C126.376068,163.600754 124.918358,166.120010 123.146149,168.855957 
	C122.209023,168.179611 121.680756,167.110123 120.855682,166.372757 
	C118.889397,164.615540 116.402870,161.376175 114.823723,161.742340 
	C112.554779,162.268463 110.876762,165.441467 109.014107,167.544495 
	C108.605186,168.006195 108.480362,168.719482 107.839417,169.408875 
	C108.236336,162.223907 103.513069,156.980667 99.910538,151.802536 
	C94.112907,143.469284 90.780983,134.176956 87.005013,124.996376 
	C88.603729,126.552376 90.058289,128.303040 91.834969,129.618713 
	C94.493980,131.587784 97.258614,133.490463 100.202927,134.976303 
	C103.084137,136.430298 105.962189,137.465149 105.756645,141.536194 
	C105.704544,142.568024 106.468132,143.777725 107.150902,144.684280 
	C109.181885,147.380905 111.417717,149.922806 113.461945,152.610046 
	C115.306717,155.035110 120.777405,155.162430 123.827904,152.600861 
	C125.475136,151.217636 126.974396,149.638962 128.423096,148.042038 
	C133.362320,142.597458 136.686462,142.370743 142.635223,146.970566 
	C143.468613,147.614975 144.763077,147.663132 146.308380,148.403564 
	C146.769592,150.531693 146.766541,152.243546 146.543304,153.837021 
	C145.881073,153.479156 145.439011,153.239700 144.996948,153.000244 
z"/>
<path fill="#C5BCC2" opacity="1.000000" stroke="none" 
	d="
M177.998032,204.010422 
	C165.891449,208.827240 151.081711,204.757996 140.403214,193.180222 
	C143.790039,190.708847 145.544708,188.063049 144.617523,184.032410 
	C144.445251,183.283447 145.111542,181.602936 145.424454,181.594437 
	C148.811386,181.502701 152.911774,180.471390 155.455933,181.985016 
	C161.545822,185.608124 166.917221,190.297150 173.873779,192.643982 
	C176.067581,193.384079 177.983826,196.213379 179.055008,198.535034 
	C179.687469,199.905792 178.414246,202.155807 177.998032,204.010422 
z"/>
<path fill="#968B98" opacity="1.000000" stroke="none" 
	d="
M140.413437,84.089218 
	C142.072678,85.763885 143.496292,87.665878 144.919922,89.567871 
	C144.529724,89.882446 144.139511,90.197021 143.749313,90.511589 
	C144.204468,90.674522 144.821014,90.701019 145.091034,91.020447 
	C151.013367,98.026115 162.278183,98.285126 166.275131,107.788948 
	C166.603851,108.570610 168.005783,108.900932 168.605499,109.722527 
	C165.247986,109.661041 165.293457,111.527969 166.311081,113.308861 
	C167.669220,115.685760 169.475067,117.806839 171.138504,120.482849 
	C171.156967,123.608490 171.125549,126.289070 170.820541,128.980255 
	C170.364624,128.994507 170.182312,128.998154 169.655151,128.958694 
	C164.755524,125.136238 159.058929,122.638855 156.264740,116.853294 
	C155.814621,115.921265 153.926590,115.683693 152.481720,114.807358 
	C151.095123,112.480507 154.072876,108.331139 149.001495,107.944168 
	C148.139709,106.833252 147.328751,106.098923 146.547516,105.334229 
	C142.696793,101.564972 138.853928,97.787666 135.008301,94.013206 
	C136.731476,90.780983 138.454651,87.548759 140.413437,84.089218 
M163.514175,109.435326 
	C163.514175,109.435326 163.559357,109.519341 163.514175,109.435326 
z"/>
<path fill="#A79CA8" opacity="1.000000" stroke="none" 
	d="
M116.022346,77.646286 
	C108.826530,77.130959 105.215820,80.331192 103.958237,88.496529 
	C103.698952,90.180008 103.181595,92.227684 102.029999,93.294289 
	C98.530220,96.535774 96.306511,100.066849 96.925087,105.045380 
	C97.027344,105.868401 96.549400,107.059189 95.926537,107.626633 
	C92.845345,110.433701 84.532135,109.320862 82.272545,105.819206 
	C80.130600,102.499847 78.142334,99.081314 76.402374,95.396835 
	C78.297729,96.203705 79.861900,97.342606 81.460152,98.431473 
	C84.054909,100.199226 86.539680,101.343399 88.104637,97.219215 
	C88.388283,96.471703 88.808975,95.591988 89.434319,95.186745 
	C95.950684,90.963928 96.873474,84.502258 97.166039,77.482925 
	C97.253136,75.393303 98.856461,72.845917 100.548607,71.476456 
	C102.647469,69.777847 105.560699,69.085510 108.122147,67.958504 
	C108.422546,68.022408 108.666641,68.175873 109.057297,68.876404 
	C109.559700,69.545776 109.859238,69.757629 110.158775,69.969475 
	C110.452446,70.042000 110.683151,70.204124 111.093201,70.923080 
	C111.705368,71.569641 112.075218,71.748947 112.445068,71.928253 
	C113.581306,73.736900 114.717537,75.545547 116.022346,77.646286 
z"/>
<path fill="#C7BDC4" opacity="1.000000" stroke="none" 
	d="
M102.003990,183.000610 
	C100.035957,180.224319 98.268280,177.274994 96.054321,174.711060 
	C92.468529,170.558426 91.811646,164.400452 86.037178,161.534103 
	C84.094406,160.569748 83.724174,156.437363 82.941940,154.509064 
	C81.105049,151.312759 78.905525,148.991882 78.445435,146.366211 
	C77.533272,141.160538 74.951385,139.215332 69.515259,139.993027 
	C68.759087,136.600189 68.422943,133.210678 68.490341,129.386444 
	C69.918724,127.288261 71.207146,125.726868 71.900909,123.935211 
	C72.746353,121.751862 73.091713,119.374870 73.908791,116.038780 
	C78.705811,120.162331 79.607452,124.994347 80.991341,129.542389 
	C82.123604,133.263489 82.631844,137.346863 86.991913,139.342010 
	C86.994659,140.115677 86.995728,140.557816 86.764740,141.178909 
	C86.355629,141.904633 86.178574,142.451401 86.010506,143.384796 
	C88.012199,147.847794 90.004913,151.924164 92.127327,156.292786 
	C92.504883,157.389816 92.752747,158.194595 93.001488,159.392761 
	C95.666534,165.191162 98.330704,170.596161 101.036255,176.347198 
	C101.797844,177.887009 102.518044,179.080795 103.238251,180.274582 
	C103.231064,180.924484 103.223877,181.574402 102.915314,182.591675 
	C102.410637,182.972885 102.207314,182.986740 102.003990,183.000610 
z"/>
<path fill="#ABA0AA" opacity="1.000000" stroke="none" 
	d="
M182.996338,58.011185 
	C190.118408,63.182919 195.022125,69.984467 197.658417,78.605728 
	C195.363708,77.800278 194.168915,77.569656 192.794876,80.408562 
	C189.451447,87.316322 188.826614,94.543526 191.322174,101.342766 
	C193.501587,107.280647 197.689835,112.481201 200.993164,118.381302 
	C200.998901,119.502960 201.002029,120.250809 200.769485,121.161804 
	C200.023605,121.883148 199.513397,122.441353 198.732849,122.781982 
	C194.868790,115.160492 191.140549,107.818047 187.719879,100.334999 
	C184.430695,93.139557 181.417831,85.815933 178.398224,78.501297 
	C177.985992,77.502693 177.951828,76.154579 178.230148,75.096542 
	C179.734116,69.379128 181.391708,63.702122 182.996338,58.011185 
z"/>
<path fill="#A396A4" opacity="1.000000" stroke="none" 
	d="
M182.808105,57.752472 
	C181.391708,63.702122 179.734116,69.379128 178.230148,75.096542 
	C177.951828,76.154579 177.985992,77.502693 178.398224,78.501297 
	C181.417831,85.815933 184.430695,93.139557 187.719879,100.334999 
	C191.140549,107.818047 194.868790,115.160492 198.761261,123.075302 
	C199.374496,124.056808 199.688995,124.527428 200.048584,125.362701 
	C201.649017,129.314209 202.798752,133.166245 204.907440,136.391266 
	C206.233231,138.418945 208.996979,139.506393 211.115631,141.015656 
	C211.056702,142.090408 210.997772,143.165161 210.680389,144.631866 
	C210.421921,145.023819 210.004074,145.032349 210.004074,145.032349 
	C207.739746,143.146545 204.729553,141.688995 203.353821,139.292969 
	C199.542053,132.654312 196.411392,125.624557 192.959030,118.014389 
	C190.934906,112.854630 188.963287,108.429863 186.952240,103.667740 
	C185.942673,102.553246 184.972565,101.776093 183.889313,100.742966 
	C183.515915,99.992180 183.255661,99.497368 182.951553,98.650955 
	C181.894196,96.438629 181.074829,94.433067 179.820557,92.751984 
	C178.048447,90.376839 175.954926,88.241501 173.999390,86.001831 
	C174.000000,86.000000 173.996338,86.000916 173.943573,85.612892 
	C172.432816,79.528275 170.143051,73.930389 171.996704,67.861702 
	C172.707794,65.533707 174.277328,62.921459 173.755127,60.872066 
	C172.501816,55.953476 175.215042,55.902584 178.506363,55.907303 
	C179.877548,56.436123 181.248718,56.964939 182.808105,57.752472 
z"/>
<path fill="#A196A2" opacity="1.000000" stroke="none" 
	d="
M107.938202,67.665192 
	C105.560699,69.085510 102.647469,69.777847 100.548607,71.476456 
	C98.856461,72.845917 97.253136,75.393303 97.166039,77.482925 
	C96.873474,84.502258 95.950684,90.963928 89.434319,95.186745 
	C88.808975,95.591988 88.388283,96.471703 88.104637,97.219215 
	C86.539680,101.343399 84.054909,100.199226 81.460152,98.431473 
	C79.861900,97.342606 78.297729,96.203705 76.360298,95.042877 
	C75.420670,94.505791 74.839005,94.013092 74.089691,92.925522 
	C72.946556,90.884529 71.971069,89.438408 71.240639,87.739021 
	C72.592964,87.499268 74.075714,87.053123 74.746460,87.601028 
	C79.035858,91.104866 82.062988,89.064140 85.586487,86.066071 
	C91.061317,81.407654 89.700798,74.526283 91.860748,68.823624 
	C92.715973,66.565666 91.995728,63.710976 91.992805,61.127983 
	C98.569984,59.868725 103.184921,63.562737 107.938202,67.665192 
z"/>
<path fill="#9B919C" opacity="1.000000" stroke="none" 
	d="
M91.621841,61.122040 
	C91.995728,63.710976 92.715973,66.565666 91.860748,68.823624 
	C89.700798,74.526283 91.061317,81.407654 85.586487,86.066071 
	C82.062988,89.064140 79.035858,91.104866 74.746460,87.601028 
	C74.075714,87.053123 72.592964,87.499268 70.999054,87.740372 
	C70.512421,87.994972 70.029152,87.994926 70.029152,87.994926 
	C71.840897,74.880661 78.304306,65.439041 91.621841,61.122040 
z"/>
<path fill="#C0B7BE" opacity="1.000000" stroke="none" 
	d="
M178.335907,203.955780 
	C178.414246,202.155807 179.687469,199.905792 179.055008,198.535034 
	C177.983826,196.213379 176.067581,193.384079 173.873779,192.643982 
	C166.917221,190.297150 161.545822,185.608124 155.455933,181.985016 
	C152.911774,180.471390 148.811386,181.502701 145.424454,181.594437 
	C145.111542,181.602936 144.445251,183.283447 144.617523,184.032410 
	C145.544708,188.063049 143.790039,190.708847 140.234833,192.889267 
	C138.468567,191.795212 137.017517,190.532150 135.277496,189.094559 
	C134.991821,188.190704 134.995117,187.461365 134.999878,185.975952 
	C135.806824,182.915787 136.201904,180.345840 137.491302,178.355179 
	C142.207916,171.073288 144.541489,170.549332 152.007828,175.063980 
	C159.066223,179.331955 165.639999,184.541306 173.030670,188.073273 
	C178.441452,190.659073 181.964081,194.418228 185.049744,199.090469 
	C182.924423,200.694031 180.799118,202.297577 178.335907,203.955780 
z"/>
<path fill="#9F95A0" opacity="1.000000" stroke="none" 
	d="
M134.742554,94.247231 
	C138.853928,97.787666 142.696793,101.564972 146.547516,105.334229 
	C147.328751,106.098923 148.139709,106.833252 148.862839,108.216888 
	C148.377945,111.247856 147.967178,113.643532 147.170807,116.249084 
	C146.332642,120.780579 145.830338,125.098366 145.497894,129.429184 
	C145.461243,129.906586 146.397064,130.458649 146.931870,131.339386 
	C146.695236,132.821518 146.408600,133.940384 145.762482,134.975372 
	C141.225937,128.476624 140.250885,120.226036 133.929077,114.656075 
	C132.266754,111.980881 130.138565,109.840134 129.226868,107.268158 
	C128.225876,104.444305 128.345688,101.223145 127.977142,98.175102 
	C131.121292,98.663986 133.366058,97.570335 134.742554,94.247231 
z"/>
<path fill="#8F8192" opacity="1.000000" stroke="none" 
	d="
M210.002869,145.417542 
	C210.004074,145.032349 210.421921,145.023819 210.630463,145.032562 
	C211.869690,152.794189 209.589691,159.914215 206.360825,166.736481 
	C206.047485,165.375137 206.032104,164.187103 206.270294,162.749084 
	C205.108887,159.690308 204.414154,155.536591 202.145615,154.321747 
	C194.979218,150.484039 187.223480,147.746826 179.698029,144.147278 
	C179.689255,139.846863 179.678192,135.983002 180.062866,132.091064 
	C181.873917,132.778488 183.486588,133.259460 184.667587,134.253357 
	C188.237778,137.257950 191.559296,140.560028 195.158707,143.526596 
	C196.214798,144.397003 197.874283,144.535263 199.990158,145.260223 
	C199.533447,142.819534 199.269470,141.408844 199.005493,139.998169 
	C200.484329,141.628632 201.970108,143.252884 203.440125,144.891251 
	C205.003540,146.633713 206.552017,148.389557 208.107025,150.139557 
	C208.557434,149.994614 209.007843,149.849670 209.458252,149.704727 
	C209.639374,148.404053 209.820511,147.103394 210.002869,145.417542 
z"/>
<path fill="#A59CA5" opacity="1.000000" stroke="none" 
	d="
M127.829361,97.915497 
	C128.345688,101.223145 128.225876,104.444305 129.226868,107.268158 
	C130.138565,109.840134 132.266754,111.980881 133.929382,114.655853 
	C134.000000,115.000000 134.000610,114.999084 133.684570,115.051727 
	C132.915497,115.748535 132.462448,116.392708 132.024200,117.498840 
	C131.464355,122.605232 133.736557,127.694641 130.008438,132.687927 
	C128.152481,130.516678 126.774590,128.904572 125.396568,127.292572 
	C121.983498,123.299927 118.598778,123.122757 114.712555,126.729454 
	C113.865669,127.515434 113.009483,128.291397 112.157562,129.071960 
	C113.437027,125.389450 113.667526,120.454002 116.232307,118.306747 
	C120.491295,114.741104 123.478004,111.624161 123.248360,105.671165 
	C123.134239,102.712654 124.816391,99.684845 125.840416,96.349632 
	C126.557121,96.559219 127.119354,97.107552 127.829361,97.915497 
z"/>
<path fill="#B1A8B0" opacity="1.000000" stroke="none" 
	d="
M200.990570,118.007507 
	C197.689835,112.481201 193.501587,107.280647 191.322174,101.342766 
	C188.826614,94.543526 189.451447,87.316322 192.794876,80.408562 
	C194.168915,77.569656 195.363708,77.800278 197.705536,78.963463 
	C199.679153,84.722389 201.374634,90.447144 202.668365,96.588181 
	C201.180511,98.061539 199.113220,99.173973 199.169235,100.166595 
	C199.505692,106.128838 200.329803,112.063568 200.990570,118.007507 
z"/>
<path fill="#BDB4BB" opacity="1.000000" stroke="none" 
	d="
M185.300659,198.961121 
	C181.964081,194.418228 178.441452,190.659073 173.030670,188.073273 
	C165.639999,184.541306 159.066223,179.331955 152.007828,175.063980 
	C144.541489,170.549332 142.207916,171.073288 137.491302,178.355179 
	C136.201904,180.345840 135.806824,182.915787 134.999176,185.610382 
	C132.326462,183.443283 131.467743,180.694046 133.729996,177.336624 
	C134.432541,176.293976 134.757111,174.903610 134.950226,173.626389 
	C135.934631,167.115906 140.927399,164.797058 146.759445,168.217117 
	C158.968552,175.376892 171.087006,182.698883 183.443970,189.593506 
	C186.591766,191.349854 186.533646,193.841644 187.011383,196.855286 
	C186.552612,197.743484 186.052094,198.287628 185.300659,198.961121 
z"/>
<path fill="#ABA0AA" opacity="1.000000" stroke="none" 
	d="
M198.104950,183.448807 
	C196.919647,185.510437 195.734344,187.572052 193.943909,189.818451 
	C192.890854,190.004395 192.442932,190.005554 191.995010,190.006714 
	C191.995010,190.006714 192.000000,190.000000 192.058014,189.679703 
	C195.251938,185.074295 194.831314,183.897064 190.217880,181.018616 
	C187.617630,179.396271 185.461990,177.072174 183.051117,175.132538 
	C180.394867,172.995514 177.753067,170.826630 174.967163,168.867584 
	C169.694031,165.159561 164.322403,161.591599 159.378708,157.941010 
	C162.781174,157.208374 165.796646,156.500137 168.968109,156.033997 
	C169.415878,156.516174 169.707626,156.756256 170.068558,157.335266 
	C171.813232,158.905289 173.493073,160.130524 175.163437,161.368546 
	C180.291367,165.169235 185.207977,169.308304 190.607864,172.671860 
	C194.843582,175.310257 197.389420,178.612137 198.104950,183.448807 
z"/>
<path fill="#9D919E" opacity="1.000000" stroke="none" 
	d="
M178.207764,55.609787 
	C175.215042,55.902584 172.501816,55.953476 173.755127,60.872066 
	C174.277328,62.921459 172.707794,65.533707 171.996704,67.861702 
	C170.143051,73.930389 172.432816,79.528275 173.590836,85.566116 
	C172.304977,85.082428 170.930161,84.454926 170.395233,83.401093 
	C166.412933,75.555931 162.597183,67.626228 158.729172,59.723049 
	C158.729172,59.723049 158.826187,59.792042 158.990005,59.765663 
	C158.979675,59.437458 158.805527,59.135624 158.631393,58.833794 
	C163.124741,53.583870 170.478348,52.240570 178.207764,55.609787 
z"/>
<path fill="#B8AFB7" opacity="1.000000" stroke="none" 
	d="
M200.993164,118.381302 
	C200.329803,112.063568 199.505692,106.128838 199.169235,100.166595 
	C199.113220,99.173973 201.180511,98.061539 202.686279,96.996574 
	C206.025711,108.724876 208.945496,120.461067 211.471786,132.595367 
	C206.851898,132.265198 206.295776,128.706482 204.955215,125.522736 
	C204.217575,123.770897 202.358582,122.491219 201.005157,120.998665 
	C201.002029,120.250809 200.998901,119.502960 200.993164,118.381302 
z"/>
<path fill="#A396A4" opacity="1.000000" stroke="none" 
	d="
M198.378052,183.210297 
	C197.389420,178.612137 194.843582,175.310257 190.607864,172.671860 
	C185.207977,169.308304 180.291367,165.169235 175.163437,161.368546 
	C173.493073,160.130524 171.813232,158.905289 170.042816,157.039246 
	C169.914474,156.208984 169.881027,156.013702 169.826447,155.784271 
	C169.805328,155.750137 169.793594,155.670715 170.172089,155.760376 
	C172.312057,156.682846 174.070282,157.522552 175.835587,158.347122 
	C181.277893,160.889252 186.583466,165.055923 192.203476,165.536621 
	C198.703384,166.092606 202.727859,167.064468 203.081848,174.168640 
	C201.604950,177.103012 200.128052,180.037399 198.378052,183.210297 
z"/>
<path fill="#988A9A" opacity="1.000000" stroke="none" 
	d="
M158.382828,59.611263 
	C162.597183,67.626228 166.412933,75.555931 170.395233,83.401093 
	C170.930161,84.454926 172.304977,85.082428 173.643600,85.954132 
	C173.996338,86.000916 174.000000,86.000000 174.006821,86.371918 
	C175.007263,89.164291 176.000885,91.584740 176.994507,94.005188 
	C175.464279,93.227028 173.573730,92.788956 172.464386,91.613564 
	C166.771881,85.582039 161.233643,79.402000 155.747559,73.180351 
	C154.136368,71.353134 152.872192,69.219910 151.134460,67.059387 
	C153.225449,64.427727 155.630966,61.963604 158.382828,59.611263 
z"/>
<path fill="#C0B7BE" opacity="1.000000" stroke="none" 
	d="
M86.990234,139.010498 
	C82.631844,137.346863 82.123604,133.263489 80.991341,129.542389 
	C79.607452,124.994347 78.705811,120.162331 73.908791,116.038780 
	C73.091713,119.374870 72.746353,121.751862 71.900909,123.935211 
	C71.207146,125.726868 69.918724,127.288261 68.528709,128.961487 
	C68.110123,120.602798 68.056702,112.234360 68.439125,103.429939 
	C72.329224,102.637909 74.354202,104.061325 75.390167,107.491928 
	C76.276138,110.425873 77.770889,113.175995 79.006294,116.393692 
	C79.286743,117.729378 79.498520,118.700317 79.837234,119.624756 
	C82.206879,126.092056 84.602760,132.549728 86.990234,139.010498 
z"/>
<path fill="#9D919E" opacity="1.000000" stroke="none" 
	d="
M203.367554,173.970032 
	C202.727859,167.064468 198.703384,166.092606 192.203476,165.536621 
	C186.583466,165.055923 181.277893,160.889252 175.835587,158.347122 
	C174.070282,157.522552 172.312057,156.682846 170.367188,155.504517 
	C172.074570,153.779007 173.965363,152.399048 176.227966,151.052338 
	C177.490921,151.497086 178.787125,151.662064 179.210770,152.358093 
	C183.590408,159.553833 190.637466,160.604523 198.127747,161.078568 
	C200.787262,161.246872 203.388748,162.332306 206.016724,162.999084 
	C206.032104,164.187103 206.047485,165.375137 206.109100,167.014587 
	C205.321320,169.567841 204.487274,171.669632 203.367554,173.970032 
z"/>
<path fill="#BDB4BB" opacity="1.000000" stroke="none" 
	d="
M86.991913,139.342010 
	C84.602760,132.549728 82.206879,126.092056 79.837234,119.624756 
	C79.498520,118.700317 79.286743,117.729378 79.263428,116.503815 
	C80.006287,116.485718 80.501923,116.743767 81.048508,117.365616 
	C81.580742,118.594437 82.124809,119.430862 82.534035,120.328720 
	C90.680794,138.203415 98.811974,156.085205 106.946312,173.965561 
	C106.708389,175.088181 106.470459,176.210800 105.831245,177.441833 
	C104.340614,175.702911 103.074707,173.935883 102.191589,171.994736 
	C97.638115,161.985962 93.197044,151.926041 88.647499,141.915451 
	C88.438347,141.455261 87.562271,141.298187 86.996803,140.999954 
	C86.995728,140.557816 86.994659,140.115677 86.991913,139.342010 
z"/>
<path fill="#B6ACB5" opacity="1.000000" stroke="none" 
	d="
M106.995216,173.623291 
	C98.811974,156.085205 90.680794,138.203415 82.534035,120.328720 
	C82.124809,119.430862 81.580742,118.594437 81.049881,117.364548 
	C81.000305,116.999695 81.004272,116.995728 81.378235,116.996841 
	C82.500153,116.999657 83.248108,117.001358 83.996056,117.003052 
	C83.998482,117.445877 84.000900,117.888702 84.043137,119.007736 
	C85.054504,120.789757 86.026047,121.895576 86.997589,123.001396 
	C86.998917,123.444756 87.000252,123.888115 87.003296,124.663925 
	C90.780983,134.176956 94.112907,143.469284 99.910538,151.802536 
	C103.513069,156.980667 108.236336,162.223907 107.691833,169.727661 
	C107.634392,171.063309 107.339256,172.172150 106.995216,173.623291 
z"/>
<path fill="#C0B7BE" opacity="1.000000" stroke="none" 
	d="
M86.764740,141.178909 
	C87.562271,141.298187 88.438347,141.455261 88.647499,141.915451 
	C93.197044,151.926041 97.638115,161.985962 102.191589,171.994736 
	C103.074707,173.935883 104.340614,175.702911 105.691772,177.762115 
	C105.270561,178.711670 104.587532,179.449387 103.571373,180.230835 
	C102.518044,179.080795 101.797844,177.887009 100.987640,175.971588 
	C99.325920,170.967392 97.886620,166.628586 96.105659,162.434860 
	C95.535507,161.092285 94.061226,160.133667 93.000610,158.999390 
	C92.752747,158.194595 92.504883,157.389816 92.077469,155.915955 
	C89.932457,151.163986 87.966988,147.081070 86.001526,142.998169 
	C86.178574,142.451401 86.355629,141.904633 86.764740,141.178909 
z"/>
<path fill="#B6ACB5" opacity="1.000000" stroke="none" 
	d="
M80.998932,117.000755 
	C80.501923,116.743767 80.006287,116.485718 79.253510,116.117538 
	C77.770889,113.175995 76.276138,110.425873 75.390167,107.491928 
	C74.354202,104.061325 72.329224,102.637909 68.478607,102.986183 
	C68.080902,101.259239 68.079552,99.540077 68.135132,97.393127 
	C72.727394,98.139999 76.088470,100.561676 77.643257,105.239662 
	C78.550865,107.970451 79.867477,110.565308 81.000702,113.984192 
	C81.002312,115.496620 81.003288,116.246170 81.004272,116.995728 
	C81.004272,116.995728 81.000305,116.999695 80.998932,117.000755 
z"/>
<path fill="#B1A8B0" opacity="1.000000" stroke="none" 
	d="
M200.769501,121.161804 
	C202.358582,122.491219 204.217575,123.770897 204.955215,125.522736 
	C206.295776,128.706482 206.851898,132.265198 211.428604,133.011612 
	C211.834534,134.093719 211.890152,135.157669 211.550232,136.601685 
	C207.987808,134.705719 204.455505,132.905167 203.494049,128.444672 
	C203.205734,127.107147 201.214523,126.136681 200.003479,124.998047 
	C199.688995,124.527428 199.374496,124.056808 199.031586,123.292877 
	C199.513397,122.441353 200.023605,121.883148 200.769501,121.161804 
z"/>
<path fill="#ABA0AA" opacity="1.000000" stroke="none" 
	d="
M200.048584,125.362701 
	C201.214523,126.136681 203.205734,127.107147 203.494049,128.444672 
	C204.455505,132.905167 207.987808,134.705719 211.504929,136.999786 
	C211.787964,138.196136 211.720795,139.374466 211.384628,140.784225 
	C208.996979,139.506393 206.233231,138.418945 204.907440,136.391266 
	C202.798752,133.166245 201.649017,129.314209 200.048584,125.362701 
z"/>
<path fill="#A79CA8" opacity="1.000000" stroke="none" 
	d="
M69.859482,88.300880 
	C70.029152,87.994926 70.512421,87.994972 70.754005,87.993622 
	C71.971069,89.438408 72.946556,90.884529 73.961685,92.664223 
	C72.622154,92.668846 71.242981,92.339905 69.510864,91.998230 
	C69.335213,90.859268 69.512512,89.733047 69.859482,88.300880 
z"/>
<path fill="#C0B7BE" opacity="1.000000" stroke="none" 
	d="
M102.008133,183.346924 
	C102.207314,182.986740 102.410637,182.972885 102.918854,182.916885 
	C103.330910,183.803452 103.438057,184.732147 103.323776,185.877396 
	C102.738991,185.293701 102.375633,184.493454 102.008133,183.346924 
z"/>
<path fill="#B1A8B0" opacity="1.000000" stroke="none" 
	d="
M192.010742,190.322723 
	C192.442932,190.005554 192.890854,190.004395 193.674759,190.004181 
	C193.562073,190.369446 193.113388,190.733749 192.375092,191.183426 
	C192.065781,191.058777 192.046112,190.848755 192.010742,190.322723 
z"/>
<path fill="#A196A2" opacity="1.000000" stroke="none" 
	d="
M112.254250,71.692337 
	C112.075218,71.748947 111.705368,71.569641 111.180405,71.120102 
	C111.371338,71.052063 111.717384,71.254250 112.254250,71.692337 
z"/>
<path fill="#A196A2" opacity="1.000000" stroke="none" 
	d="
M110.025551,69.729767 
	C109.859238,69.757629 109.559700,69.545776 109.146988,69.077148 
	C109.319977,69.043602 109.606148,69.266830 110.025551,69.729767 
z"/>
<path fill="#988A9A" opacity="1.000000" stroke="none" 
	d="
M158.566559,59.100380 
	C158.805527,59.135624 158.979675,59.437458 158.942963,59.802132 
	C158.655304,59.698967 158.578522,59.532963 158.566559,59.100380 
z"/>
<path fill="#E7E1E2" opacity="1.000000" stroke="none" 
	d="
M111.967583,129.353348 
	C113.009483,128.291397 113.865669,127.515434 114.712555,126.729454 
	C118.598778,123.122757 121.983498,123.299927 125.396568,127.292572 
	C126.774590,128.904572 128.152481,130.516678 130.008438,132.687927 
	C133.736557,127.694641 131.464355,122.605232 132.345825,117.487228 
	C133.065399,117.131683 133.478104,117.249710 133.899628,117.751350 
	C134.638138,121.330482 135.503815,124.502243 136.067017,127.726837 
	C137.014755,133.152939 139.464905,137.259796 145.276764,138.897949 
	C145.817322,138.681412 145.945633,138.407379 145.935791,137.677734 
	C146.022552,136.555862 146.072250,135.807541 146.121964,135.059235 
	C146.408600,133.940384 146.695236,132.821518 146.977844,130.877457 
	C147.167984,125.381233 147.362183,120.710213 147.556396,116.039200 
	C147.967178,113.643532 148.377945,111.247856 148.927368,108.579468 
	C154.072876,108.331139 151.095123,112.480507 152.541229,115.260582 
	C152.608154,121.679550 152.394058,127.327545 152.098267,133.368515 
	C151.439072,136.305252 150.861557,138.849014 150.089706,141.132980 
	C148.863358,142.000671 147.831360,143.128174 146.799347,144.255661 
	C143.209671,143.112549 140.696747,139.135834 135.696426,141.242706 
	C134.164749,141.888077 130.593689,138.673828 128.468811,136.680862 
	C125.852814,134.227280 123.772598,131.202438 121.460831,128.424500 
	C120.743362,128.722214 120.025894,129.019928 119.308418,129.317642 
	C118.282227,134.645355 117.256035,139.973068 116.144691,145.742828 
	C114.249420,142.415771 112.675430,139.246201 110.717957,136.334412 
	C108.876381,133.595016 109.185135,131.515045 111.967583,129.353348 
z"/>
<path fill="#E8EAE7" opacity="1.000000" stroke="none" 
	d="
M146.806183,144.628143 
	C147.831360,143.128174 148.863358,142.000671 150.088928,141.545105 
	C150.165802,144.816315 150.049118,147.415573 149.754547,150.380951 
	C149.285110,154.135178 148.993546,157.523285 148.701981,160.911392 
	C148.111420,159.509216 147.520844,158.107040 146.911011,155.994507 
	C146.848999,154.841217 146.806244,154.398315 146.763474,153.955414 
	C146.766541,152.243546 146.769592,150.531693 146.665100,148.403168 
	C146.642685,146.991196 146.727859,145.995911 146.806183,144.628143 
z"/>
<path fill="#B1A8B0" opacity="1.000000" stroke="none" 
	d="
M86.958275,122.657738 
	C86.026047,121.895576 85.054504,120.789757 84.044800,119.339844 
	C84.977425,120.101868 85.948189,121.207970 86.958275,122.657738 
z"/>
<path fill="#B1A8B0" opacity="1.000000" stroke="none" 
	d="
M81.378235,116.996841 
	C81.003288,116.246170 81.002312,115.496620 81.002647,114.372147 
	C81.974060,114.774437 82.944160,115.551651 83.955154,116.665962 
	C83.248108,117.001358 82.500153,116.999657 81.378235,116.996841 
z"/>
<path fill="#E7E1E2" opacity="1.000000" stroke="none" 
	d="
M175.856140,151.019073 
	C173.965363,152.399048 172.074570,153.779007 169.988678,155.414856 
	C169.793594,155.670715 169.805328,155.750137 169.569565,155.738434 
	C169.159897,155.748444 168.986008,155.770172 168.812103,155.791901 
	C165.796646,156.500137 162.781174,157.208374 159.050964,157.916840 
	C157.898254,157.929626 157.460297,157.942200 156.775269,157.929596 
	C156.528198,157.904434 156.031509,157.909668 156.014435,157.942505 
	C155.997375,157.975342 156.066528,157.948929 155.884979,157.704361 
	C155.151611,157.204681 154.599792,156.949570 154.051910,156.341675 
	C154.119354,155.053345 154.182877,154.117767 154.615387,153.124542 
	C157.671494,152.531860 160.358566,151.996841 163.408447,151.382690 
	C164.869064,150.889526 165.966873,150.475494 167.066315,150.096741 
	C167.067947,150.132034 167.126480,150.171646 167.484436,150.113693 
	C172.802109,146.825714 172.063965,141.800476 172.004211,136.551620 
	C171.728104,133.741302 171.411118,131.355484 171.094147,128.969650 
	C171.125549,126.289070 171.156967,123.608490 171.157990,120.076569 
	C170.421387,116.490250 169.715179,113.755264 169.008972,111.020279 
	C169.469894,110.955566 169.930801,110.890839 170.950531,110.758369 
	C171.509354,110.690620 171.971985,110.742355 172.129120,110.941002 
	C172.428284,111.231003 172.570297,111.322350 172.921234,111.672325 
	C178.195282,116.927917 177.707809,123.788216 179.135895,130.274231 
	C179.277115,131.080276 179.472122,131.599716 179.667114,132.119156 
	C179.678192,135.983002 179.689255,139.846863 179.461761,144.398499 
	C178.100861,147.063889 176.978500,149.041473 175.856140,151.019073 
z"/>
<path fill="#847588" opacity="1.000000" stroke="none" 
	d="
M179.189682,129.987640 
	C177.707809,123.788216 178.195282,116.927917 173.056061,111.399780 
	C172.653351,110.244392 172.324738,109.620178 171.998062,108.997849 
	C172.000000,108.999725 172.003601,109.002419 172.003601,109.002419 
	C171.632935,105.518997 171.262268,102.035568 170.891617,98.552139 
	C171.448700,98.327850 172.005798,98.103554 172.562897,97.879265 
	C179.186600,101.711449 182.193375,108.393021 185.047943,115.929672 
	C185.737122,117.079887 186.369507,117.539650 187.001907,117.999405 
	C187.001907,117.999405 187.007874,118.492828 187.056488,119.055885 
	C187.737411,120.078888 188.369736,120.538834 189.002045,120.998779 
	C189.315109,121.470245 189.628174,121.941719 189.760437,122.887070 
	C190.052475,123.907776 190.525314,124.454597 190.998169,125.001411 
	C190.998169,125.001411 191.003784,125.496025 191.054611,126.112534 
	C191.971909,129.148178 194.951416,131.632996 191.545120,134.067383 
	C188.387375,136.324127 187.175781,132.917831 185.127747,131.547058 
	C183.520493,130.471313 181.195709,130.467606 179.189682,129.987640 
z"/>
<path fill="#88798D" opacity="1.000000" stroke="none" 
	d="
M179.135895,130.274231 
	C181.195709,130.467606 183.520493,130.471313 185.127747,131.547058 
	C187.175781,132.917831 188.387375,136.324127 191.545120,134.067383 
	C194.951416,131.632996 191.971909,129.148178 191.056061,126.359863 
	C192.934250,128.943741 194.936111,131.851990 196.756073,134.869934 
	C197.589935,136.252701 198.066101,137.851166 198.854980,139.674988 
	C199.269470,141.408844 199.533447,142.819534 199.990158,145.260223 
	C197.874283,144.535263 196.214798,144.397003 195.158707,143.526596 
	C191.559296,140.560028 188.237778,137.257950 184.667587,134.253357 
	C183.486588,133.259460 181.873917,132.778488 180.062866,132.091064 
	C179.472122,131.599716 179.277115,131.080276 179.135895,130.274231 
z"/>
<path fill="#988A9A" opacity="1.000000" stroke="none" 
	d="
M182.995407,99.002556 
	C183.255661,99.497368 183.515915,99.992180 183.930573,101.079666 
	C185.053879,102.449921 186.022781,103.227509 186.991669,104.005096 
	C188.963287,108.429863 190.934906,112.854630 192.947784,117.642731 
	C191.890991,117.361229 190.378250,116.984062 189.761536,116.028564 
	C185.431702,109.320282 181.286621,102.492752 177.383057,95.396942 
	C179.454239,96.394547 181.224823,97.698555 182.995407,99.002556 
z"/>
<path fill="#9D919E" opacity="1.000000" stroke="none" 
	d="
M182.951553,98.650955 
	C181.224823,97.698555 179.454239,96.394547 177.341827,95.045273 
	C177.000000,95.000000 176.997681,94.502533 176.996094,94.253860 
	C176.000885,91.584740 175.007263,89.164291 174.006210,86.373749 
	C175.954926,88.241501 178.048447,90.376839 179.820557,92.751984 
	C181.074829,94.433067 181.894196,96.438629 182.951553,98.650955 
z"/>
<path fill="#8F8192" opacity="1.000000" stroke="none" 
	d="
M169.005936,110.765976 
	C169.715179,113.755264 170.421387,116.490250 171.108124,119.631500 
	C169.475067,117.806839 167.669220,115.685760 166.311081,113.308861 
	C165.293457,111.527969 165.247986,109.661041 168.650970,110.003571 
	C169.000961,110.172600 169.001938,110.342140 169.005936,110.765976 
z"/>
<path fill="#88798D" opacity="1.000000" stroke="none" 
	d="
M186.951126,117.685196 
	C186.369507,117.539650 185.737122,117.079887 185.056885,116.304092 
	C185.639481,116.449028 186.269913,116.910011 186.951126,117.685196 
z"/>
<path fill="#88798D" opacity="1.000000" stroke="none" 
	d="
M190.971161,124.707214 
	C190.525314,124.454597 190.052475,123.907776 189.787994,123.180511 
	C190.312302,123.471046 190.628235,123.942024 190.971161,124.707214 
z"/>
<path fill="#88798D" opacity="1.000000" stroke="none" 
	d="
M188.950897,120.684814 
	C188.369736,120.538834 187.737411,120.078888 187.057816,119.302612 
	C187.640259,119.447800 188.269989,119.909325 188.950897,120.684814 
z"/>
<path fill="#847588" opacity="1.000000" stroke="none" 
	d="
M171.971985,110.742355 
	C171.971985,110.742355 171.509354,110.690620 171.280930,110.645844 
	C171.230743,110.156288 171.408966,109.711502 171.795395,109.134567 
	C172.003601,109.002419 172.000000,108.999725 171.992676,109.289650 
	C171.980911,109.967171 171.976440,110.354759 171.971985,110.742355 
z"/>
<path fill="#B1A8B0" opacity="1.000000" stroke="none" 
	d="
M154.246384,153.182190 
	C154.182877,154.117767 154.119354,155.053345 154.186813,156.639954 
	C154.900711,157.510284 155.483612,157.729614 156.066528,157.948929 
	C156.066528,157.948929 155.997375,157.975342 156.094696,158.110504 
	C156.468781,158.148697 156.745560,158.051712 157.022354,157.954742 
	C157.460297,157.942200 157.898254,157.929626 158.663940,157.941254 
	C164.322403,161.591599 169.694031,165.159561 174.967163,168.867584 
	C177.753067,170.826630 180.394867,172.995514 183.051117,175.132538 
	C185.461990,177.072174 187.617630,179.396271 190.217880,181.018616 
	C194.831314,183.897064 195.251938,185.074295 192.054520,189.682068 
	C186.710556,186.164246 181.481155,182.247940 176.129822,178.505997 
	C171.393112,175.193878 166.534256,172.055283 161.704132,168.878342 
	C157.655350,166.215317 153.570190,163.607559 149.101562,160.943359 
	C148.993546,157.523285 149.285110,154.135178 150.102509,150.438843 
	C151.834366,151.147797 153.040375,152.164993 154.246384,153.182190 
z"/>
<path fill="#ADA2AD" opacity="1.000000" stroke="none" 
	d="
M146.543304,153.837021 
	C146.806244,154.398315 146.848999,154.841217 146.856781,155.615768 
	C146.218384,155.190216 145.614960,154.433014 145.004242,153.338028 
	C145.439011,153.239700 145.881073,153.479156 146.543304,153.837021 
z"/>
<path fill="#9B919C" opacity="1.000000" stroke="none" 
	d="
M171.963348,136.976105 
	C172.063965,141.800476 172.802109,146.825714 167.475220,149.752609 
	C166.925201,147.944962 167.313171,145.817123 166.464371,145.039795 
	C161.871796,140.833923 156.973129,136.962341 152.179947,132.975540 
	C152.394058,127.327545 152.608154,121.679550 152.762756,115.578331 
	C153.926590,115.683693 155.814621,115.921265 156.264740,116.853294 
	C159.058929,122.638855 164.755524,125.136238 169.656326,129.361130 
	C170.656021,132.196487 171.309692,134.586288 171.963348,136.976105 
z"/>
<path fill="#8F8192" opacity="1.000000" stroke="none" 
	d="
M172.004211,136.551620 
	C171.309692,134.586288 170.656021,132.196487 170.001175,129.404251 
	C170.182312,128.998154 170.364624,128.994507 170.820541,128.980255 
	C171.411118,131.355484 171.728104,133.741302 172.004211,136.551620 
z"/>
<path fill="#8F8192" opacity="1.000000" stroke="none" 
	d="
M163.536774,109.477333 
	C163.559357,109.519341 163.514175,109.435326 163.536774,109.477333 
z"/>
<path fill="#C5BCC2" opacity="1.000000" stroke="none" 
	d="
M93.001488,159.392761 
	C94.061226,160.133667 95.535507,161.092285 96.105659,162.434860 
	C97.886620,166.628586 99.325920,170.967392 100.946259,175.625580 
	C98.330704,170.596161 95.666534,165.191162 93.001488,159.392761 
z"/>
<path fill="#C5BCC2" opacity="1.000000" stroke="none" 
	d="
M86.010506,143.384796 
	C87.966988,147.081070 89.932457,151.163986 91.947769,155.623718 
	C90.004913,151.924164 88.012199,147.847794 86.010506,143.384796 
z"/>
<path fill="#9D919E" opacity="1.000000" stroke="none" 
	d="
M186.952240,103.667740 
	C186.022781,103.227509 185.053879,102.449921 184.043716,101.335632 
	C184.972565,101.776093 185.942673,102.553246 186.952240,103.667740 
z"/>
<path fill="#A59CA5" opacity="1.000000" stroke="none" 
	d="
M145.762482,134.975372 
	C146.072250,135.807541 146.022552,136.555862 145.745972,137.770813 
	C145.286758,138.415054 145.126953,138.643402 145.039703,138.922516 
	C139.464905,137.259796 137.014755,133.152939 136.067017,127.726837 
	C135.503815,124.502243 134.638138,121.330482 133.930786,117.353943 
	C133.968979,116.048302 133.984787,115.523689 134.000610,114.999084 
	C134.000610,114.999084 134.000000,115.000000 133.999695,115.000229 
	C140.250885,120.226036 141.225937,128.476624 145.762482,134.975372 
z"/>
<path fill="#968B98" opacity="1.000000" stroke="none" 
	d="
M147.170807,116.249084 
	C147.362183,120.710213 147.167984,125.381233 146.927826,130.514160 
	C146.397064,130.458649 145.461243,129.906586 145.497894,129.429184 
	C145.830338,125.098366 146.332642,120.780579 147.170807,116.249084 
z"/>
<path fill="#988A9A" opacity="1.000000" stroke="none" 
	d="
M176.227966,151.052338 
	C176.978500,149.041473 178.100861,147.063889 179.459488,144.835083 
	C187.223480,147.746826 194.979218,150.484039 202.145615,154.321747 
	C204.414154,155.536591 205.108887,159.690308 206.270294,162.749084 
	C203.388748,162.332306 200.787262,161.246872 198.127747,161.078568 
	C190.637466,160.604523 183.590408,159.553833 179.210770,152.358093 
	C178.787125,151.662064 177.490921,151.497086 176.227966,151.052338 
z"/>
<path fill="#9F95A0" opacity="1.000000" stroke="none" 
	d="
M133.684570,115.051727 
	C133.984787,115.523689 133.968979,116.048302 133.921982,116.970322 
	C133.478104,117.249710 133.065399,117.131683 132.331055,117.025276 
	C132.462448,116.392708 132.915497,115.748535 133.684570,115.051727 
z"/>
<path fill="#9D919E" opacity="1.000000" stroke="none" 
	d="
M168.968109,156.033997 
	C168.986008,155.770172 169.159897,155.748444 169.590683,155.772568 
	C169.881027,156.013702 169.914474,156.208984 169.973663,156.700302 
	C169.707626,156.756256 169.415878,156.516174 168.968109,156.033997 
z"/>
<path fill="#A59CA5" opacity="1.000000" stroke="none" 
	d="
M152.098267,133.368515 
	C156.973129,136.962341 161.871796,140.833923 166.464371,145.039795 
	C167.313171,145.817123 166.925201,147.944962 167.117279,149.810562 
	C167.126480,150.171646 167.067947,150.132034 166.677124,150.077744 
	C165.206085,150.502899 164.125870,150.982361 163.045654,151.461823 
	C160.358566,151.996841 157.671494,152.531860 154.615387,153.124542 
	C153.040375,152.164993 151.834366,151.147797 150.280396,150.072723 
	C150.049118,147.415573 150.165802,144.816315 150.283264,141.804901 
	C150.861557,138.849014 151.439072,136.305252 152.098267,133.368515 
z"/>
<path fill="#968B98" opacity="1.000000" stroke="none" 
	d="
M145.276764,138.897949 
	C145.126953,138.643402 145.286758,138.415054 145.708923,138.144379 
	C145.945633,138.407379 145.817322,138.681412 145.276764,138.897949 
z"/>
<path fill="#9B919C" opacity="1.000000" stroke="none" 
	d="
M163.408447,151.382690 
	C164.125870,150.982361 165.206085,150.502899 166.675507,150.042450 
	C165.966873,150.475494 164.869064,150.889526 163.408447,151.382690 
z"/>
<path fill="#928394" opacity="1.000000" stroke="none" 
	d="
M172.129120,110.941002 
	C171.976440,110.354759 171.980911,109.967171 171.990753,109.287766 
	C172.324738,109.620178 172.653351,110.244392 172.847137,111.141144 
	C172.570297,111.322350 172.428284,111.231003 172.129120,110.941002 
z"/>
<path fill="#ABA0AA" opacity="1.000000" stroke="none" 
	d="
M155.884979,157.704361 
	C155.483612,157.729614 154.900711,157.510284 154.182892,156.992706 
	C154.599792,156.949570 155.151611,157.204681 155.884979,157.704361 
z"/>
<path fill="#ABA0AA" opacity="1.000000" stroke="none" 
	d="
M156.775269,157.929596 
	C156.745560,158.051712 156.468781,158.148697 156.111755,158.077667 
	C156.031509,157.909668 156.528198,157.904434 156.775269,157.929596 
z"/>
</svg>